<svg width="27" height="27" viewBox="0 0 27 27" fill="none" xmlns="http://www.w3.org/2000/svg">
<path d="M24.6404 20.3062C23.7242 19.3832 21.5053 18.0361 20.4288 17.4933C19.0268 16.7871 18.9114 16.7294 17.8095 17.5481C17.0745 18.0944 16.5858 18.5824 15.7256 18.399C14.8654 18.2155 12.9961 17.1811 11.3593 15.5497C9.72256 13.9182 8.62811 11.9948 8.44407 11.1376C8.26002 10.2803 8.75619 9.79743 9.29736 9.06073C10.0601 8.02231 10.0024 7.84924 9.35043 6.44738C8.84215 5.35704 7.45577 3.15906 6.52921 2.24756C5.53803 1.26857 5.53803 1.44164 4.89937 1.70701C4.37941 1.92576 3.88059 2.19167 3.40914 2.5014C2.48604 3.11464 1.97372 3.62404 1.61544 4.38959C1.25716 5.15513 1.0962 6.94986 2.94643 10.3109C4.79667 13.6719 6.09478 15.3905 8.78157 18.0696C11.4684 20.7487 13.5344 22.1892 16.5547 23.883C20.2909 25.9754 21.724 25.5675 22.4919 25.2098C23.2598 24.8522 23.7716 24.3445 24.386 23.4215C24.6965 22.9508 24.9631 22.4526 25.1822 21.9331C25.4481 21.2967 25.6212 21.2967 24.6404 20.3062Z" fill="#FEE869" stroke="#1C2752" stroke-width="2" stroke-miterlimit="10"/>
</svg>
