<svg width="20" height="19" viewBox="0 0 20 19" fill="none" xmlns="http://www.w3.org/2000/svg">
<path d="M14.1974 1.54725C15.2619 1.55031 16.282 1.95889 17.0347 2.68376C17.7875 3.40863 18.2118 4.39088 18.2149 5.41599V13.1527C18.2118 14.1778 17.7875 15.16 17.0347 15.8849C16.282 16.6098 15.2619 17.0183 14.1974 17.0214H6.16318C5.09864 17.0183 4.07861 16.6098 3.32586 15.8849C2.57311 15.16 2.14882 14.1778 2.14564 13.1527V5.41599C2.14882 4.39088 2.57311 3.40863 3.32586 2.68376C4.07861 1.95889 5.09864 1.55031 6.16318 1.54725H14.1974ZM14.1974 0H6.16318C3.06975 0 0.538879 2.43713 0.538879 5.41599V13.1527C0.538879 16.1315 3.06975 18.5686 6.16318 18.5686H14.1974C17.2908 18.5686 19.8217 16.1315 19.8217 13.1527V5.41599C19.8217 2.43713 17.2908 0 14.1974 0Z" fill="#FEE869"/>
<path d="M15.4027 5.4163C15.1643 5.4163 14.9313 5.34823 14.7331 5.22071C14.5349 5.09319 14.3805 4.91194 14.2892 4.69988C14.198 4.48781 14.1742 4.25447 14.2207 4.02935C14.2672 3.80422 14.3819 3.59743 14.5505 3.43513C14.719 3.27283 14.9338 3.16229 15.1676 3.11751C15.4013 3.07274 15.6437 3.09572 15.8639 3.18356C16.0841 3.27139 16.2723 3.42014 16.4047 3.61099C16.5372 3.80184 16.6079 4.02622 16.6079 4.25576C16.6082 4.40825 16.5772 4.55931 16.5168 4.70026C16.4564 4.84121 16.3676 4.96928 16.2556 5.07711C16.1436 5.18494 16.0106 5.27042 15.8643 5.32862C15.7179 5.38683 15.561 5.41662 15.4027 5.4163ZM10.1804 6.18971C10.816 6.18971 11.4374 6.37123 11.966 6.7113C12.4945 7.05137 12.9064 7.53473 13.1497 8.10026C13.3929 8.66578 13.4566 9.28806 13.3326 9.88841C13.2086 10.4888 12.9025 11.0402 12.453 11.4731C12.0035 11.9059 11.4308 12.2007 10.8074 12.3201C10.184 12.4395 9.53774 12.3782 8.95046 12.144C8.36319 11.9097 7.86124 11.513 7.50809 11.0041C7.15494 10.4951 6.96644 9.89674 6.96644 9.28463C6.96735 8.46407 7.30626 7.67738 7.90879 7.09716C8.51132 6.51694 9.32828 6.19059 10.1804 6.18971ZM10.1804 4.64246C9.22694 4.64246 8.29491 4.91472 7.50215 5.42481C6.70939 5.9349 6.0915 6.6599 5.72664 7.50815C5.36177 8.35639 5.2663 9.28978 5.45231 10.1903C5.63832 11.0908 6.09745 11.9179 6.77163 12.5671C7.44582 13.2163 8.30479 13.6585 9.23991 13.8376C10.175 14.0167 11.1443 13.9248 12.0252 13.5734C12.9061 13.2221 13.659 12.6271 14.1887 11.8637C14.7184 11.1003 15.0011 10.2028 15.0011 9.28463C15.0011 8.05345 14.4932 6.8727 13.5891 6.00212C12.6851 5.13155 11.4589 4.64246 10.1804 4.64246Z" fill="#FEE869"/>
</svg>
