<svg width="21" height="20" viewBox="0 0 21 20" fill="none" xmlns="http://www.w3.org/2000/svg">
<path d="M10.3355 0C4.9255 0 0.538879 4.38466 0.538879 9.79227C0.538879 13.801 2.95305 17.2458 6.40374 18.7627C6.3775 18.0807 6.39937 17.2589 6.57431 16.5157C6.76237 15.7201 7.83388 11.178 7.83388 11.178C7.83388 11.178 7.51898 10.5529 7.51898 9.63052C7.51898 8.17916 8.3587 7.09502 9.40834 7.09502C10.3005 7.09502 10.7291 7.76387 10.7291 8.56386C10.7291 9.46003 10.1562 10.7977 9.86318 12.0392C9.61826 13.0797 10.3836 13.9234 11.4114 13.9234C13.2658 13.9234 14.5166 11.5409 14.5166 8.71687C14.5166 6.57044 13.069 4.96608 10.4405 4.96608C7.47088 4.96608 5.61651 7.18245 5.61651 9.65675C5.61651 10.5092 5.87017 11.1125 6.26379 11.5759C6.4431 11.7901 6.46934 11.8775 6.40374 12.1223C6.35563 12.3015 6.25067 12.7343 6.20256 12.9092C6.13696 13.1584 5.93578 13.2458 5.71273 13.154C4.34382 12.5944 3.70529 11.0994 3.70529 9.41194C3.70529 6.63164 6.05386 3.29615 10.7073 3.29615C14.4466 3.29615 16.9089 6.00213 16.9089 8.90484C16.9089 12.7474 14.7702 15.6152 11.6213 15.6152C10.5629 15.6152 9.57016 15.0425 9.22902 14.3955C9.22902 14.3955 8.66047 16.6512 8.53801 17.0884C8.33245 17.8447 7.92572 18.5966 7.55397 19.1867C8.45574 19.4526 9.39096 19.5881 10.3311 19.5889C15.7412 19.5889 20.1278 15.2042 20.1278 9.79664C20.1278 4.38903 15.7455 0 10.3355 0Z" fill="#FEE869"/>
</svg>
