<svg width="22" height="17" viewBox="0 0 22 17" fill="none" xmlns="http://www.w3.org/2000/svg">
<path d="M21.1991 1.95842C20.4241 2.29516 19.6041 2.51701 18.765 2.61696C19.6468 2.10062 20.3099 1.28032 20.63 0.30991C19.7964 0.7974 18.8858 1.13945 17.9373 1.3214C17.5379 0.902826 17.0576 0.569842 16.5255 0.342684C15.9934 0.115526 15.4207 -0.00106199 14.8422 7.28892e-06C12.4998 7.28892e-06 10.6043 1.86803 10.6043 4.17078C10.6026 4.49108 10.6393 4.81043 10.7136 5.12201C9.03395 5.04327 7.38924 4.61479 5.88469 3.864C4.38014 3.1132 3.04887 2.05662 1.97605 0.761851C1.59968 1.39634 1.40064 2.12028 1.39972 2.858C1.39972 4.30421 2.15425 5.58256 3.29357 6.33149C2.61855 6.31547 1.95737 6.13681 1.36615 5.81068V5.86233C1.36615 7.8853 2.82958 9.56825 4.76647 9.95132C4.40224 10.0484 4.02691 10.0976 3.64996 10.0977C3.38248 10.0981 3.11562 10.0722 2.85325 10.0202C3.3917 11.6773 4.95887 12.8825 6.81527 12.9169C5.30681 14.0794 3.45481 14.7078 1.55037 14.7032C1.21232 14.7027 0.874592 14.6825 0.538879 14.6429C2.47628 15.88 4.72835 16.5344 7.02703 16.5281C14.8331 16.5281 19.0977 10.1708 19.0977 4.65715C19.0977 4.47638 19.093 4.2956 19.0844 4.11913C19.9121 3.53034 20.6282 2.79865 21.1991 1.95842Z" fill="#FEE869"/>
</svg>
